<svg width="945" height="675" viewBox="0 0 945 675" fill="none" xmlns="http://www.w3.org/2000/svg">
<g clip-path="url(#clip0)">
<path d="M945 228.355V403.971H433.284V228.355C433.192 178.932 451.154 130.83 484.448 91.3382C506.783 64.7558 535.349 42.8442 568.152 27.1333C600.956 11.4224 637.206 2.29065 674.373 0.375616C679.252 0.121074 684.175 -0.00316357 689.142 0.00289697C691.964 0.00289697 694.785 0.0392596 697.576 0.130168C762.496 1.96529 824.184 25.8406 870.053 66.884C871.438 68.1203 872.793 69.3658 874.158 70.6203C881.169 77.1743 887.74 84.0924 893.837 91.3382C927.126 130.832 945.087 178.933 945 228.355Z" fill="#3F3D56"/>
<path d="M817.561 221.347C854.797 221.347 884.983 194.406 884.983 161.172C884.983 127.939 854.797 100.998 817.561 100.998C780.324 100.998 750.138 127.939 750.138 161.172C750.138 194.406 780.324 221.347 817.561 221.347Z" fill="#6C63FF"/>
<path opacity="0.2" d="M810.929 126.646C815.202 126.646 818.666 123.554 818.666 119.741C818.666 115.927 815.202 112.835 810.929 112.835C806.656 112.835 803.192 115.927 803.192 119.741C803.192 123.554 806.656 126.646 810.929 126.646Z" fill="black"/>
<path opacity="0.2" d="M824.192 195.699C828.465 195.699 831.929 192.607 831.929 188.793C831.929 184.98 828.465 181.888 824.192 181.888C819.919 181.888 816.455 184.98 816.455 188.793C816.455 192.607 819.919 195.699 824.192 195.699Z" fill="black"/>
<path opacity="0.2" d="M854.035 155.254C857.087 155.254 859.561 153.045 859.561 150.321C859.561 147.597 857.087 145.389 854.035 145.389C850.983 145.389 848.509 147.597 848.509 150.321C848.509 153.045 850.983 155.254 854.035 155.254Z" fill="black"/>
<path opacity="0.2" d="M791.034 181.888C800.801 181.888 808.718 174.822 808.718 166.105C808.718 157.388 800.801 150.321 791.034 150.321C781.267 150.321 773.349 157.388 773.349 166.105C773.349 174.822 781.267 181.888 791.034 181.888Z" fill="black"/>
<path opacity="0.8" d="M605.614 326.415L639.197 291.326L672.78 256.237L691.739 236.429C692.788 235.333 691.169 233.623 690.12 234.719L656.537 269.808L622.954 304.897L603.995 324.706C602.946 325.802 604.565 327.511 605.614 326.415V326.415Z" fill="url(#paint0_linear)"/>
<path opacity="0.8" d="M602.558 171.872L636.142 136.783L669.725 101.693L688.683 81.885C689.732 80.789 688.113 79.0792 687.064 80.1751L653.481 115.264L619.898 150.354L600.94 170.162C599.891 171.258 601.509 172.968 602.558 171.872V171.872Z" fill="url(#paint1_linear)"/>
<path d="M697.58 0.131905V403.969H674.368V0.376681C679.253 0.122478 684.177 -0.00306439 689.139 5.67862e-05C691.967 5.67862e-05 694.784 0.0377062 697.58 0.131905Z" fill="white"/>
<path d="M893.835 91.3404H484.443C490.537 84.0936 497.108 77.176 504.12 70.624H874.158C881.17 77.176 887.741 84.0936 893.835 91.3404Z" fill="white"/>
<path d="M887.816 270.57C890.75 270.57 893.128 268.448 893.128 265.829C893.128 263.211 890.75 261.088 887.816 261.088C884.882 261.088 882.503 263.211 882.503 265.829C882.503 268.448 884.882 270.57 887.816 270.57Z" fill="#E6E6E6"/>
<path d="M544.554 231.48C547.488 231.48 549.866 229.357 549.866 226.739C549.866 224.12 547.488 221.997 544.554 221.997C541.62 221.997 539.241 224.12 539.241 226.739C539.241 229.357 541.62 231.48 544.554 231.48Z" fill="#E6E6E6"/>
<path d="M786.989 247.947L784.337 250.298L781.703 247.931L779.936 249.498L782.569 251.865L779.918 254.215L781.673 255.793L784.325 253.443L786.958 255.809L788.726 254.242L786.092 251.875L788.744 249.525L786.989 247.947Z" fill="#E6E6E6"/>
<path d="M493.637 295.219L490.985 297.57L488.351 295.203L486.584 296.77L489.217 299.137L486.566 301.488L488.321 303.065L490.973 300.715L493.606 303.081L495.374 301.514L492.74 299.148L495.392 296.798L493.637 295.219Z" fill="#E6E6E6"/>
<path d="M757.45 322.492L754.798 324.843L752.164 322.476L750.397 324.043L753.03 326.409L750.379 328.76L752.134 330.337L754.786 327.987L757.419 330.354L759.187 328.786L756.553 326.42L759.205 324.07L757.45 322.492Z" fill="#E6E6E6"/>
<path d="M578.179 113.403L575.528 115.754L572.894 113.387L571.126 114.954L573.759 117.321L571.108 119.671L572.863 121.249L575.516 118.899L578.149 121.265L579.917 119.698L577.283 117.331L579.934 114.981L578.179 113.403Z" fill="#E6E6E6"/>
<path d="M617.359 641.632H0V643.451H617.359V641.632Z" fill="#E6E6E6"/>
<path d="M98.2159 495.053C84.7197 512.08 81.1546 608.988 80.3601 640.051C80.3398 640.751 80.3194 641.415 80.3092 642.042H46.1459C45.7283 641.378 45.3413 640.724 44.9746 640.051C24.7251 604.379 35.9601 561.607 36.5509 559.443C35.0128 566.243 41.9698 585.952 49.8332 605.042C54.6307 546.343 95.649 498.016 98.2159 495.053Z" fill="#E6E6E6"/>
<path d="M308.88 407.804L305.014 422.758C305.014 422.758 306.303 457.268 295.992 453.817C285.681 450.366 288.258 420.457 288.258 420.457L297.28 405.503L308.88 407.804Z" fill="#FFB8B8"/>
<path d="M251.525 243.884C265.762 243.884 277.303 233.584 277.303 220.878C277.303 208.172 265.762 197.872 251.525 197.872C237.289 197.872 225.748 208.172 225.748 220.878C225.748 233.584 237.289 243.884 251.525 243.884Z" fill="#FFB8B8"/>
<path d="M231.548 227.205L228.97 260.564L261.192 264.015C261.192 264.015 261.192 236.407 263.77 232.956C266.348 229.505 231.548 227.205 231.548 227.205Z" fill="#FFB8B8"/>
<path d="M303.006 270.647L261.253 254.905C261.253 254.905 241.302 241.19 229.616 251.351L224.372 258.055C224.372 258.055 177.988 274.196 178.001 286.849L196.107 350.103C196.107 350.103 185.831 385.77 201.3 388.059L285.083 394.895C285.083 394.895 296.671 382.233 286.344 366.137L290.173 328.173L303.006 270.647Z" fill="#E6E6E6"/>
<path d="M274.651 271.82L303.006 270.647C303.006 270.647 312.03 272.941 318.496 294.792C324.962 316.643 326.285 352.302 326.285 352.302L310.882 416.731L291.547 414.446L299.219 352.323L286.29 310.922L274.651 271.82Z" fill="#E6E6E6"/>
<path d="M193.459 278.785L179.483 282.682C179.483 282.682 167.701 298.361 167.709 306.413C167.717 314.465 162.621 375.436 162.621 375.436L196.18 424.873L206.467 400.708L185.815 369.666L202.533 331.693L193.459 278.785Z" fill="#E6E6E6"/>
<path d="M288.903 392.275L196.237 384.998C196.237 384.998 187.082 437.137 188.371 457.843C189.66 478.548 190.948 510.757 190.948 510.757L180.637 651.096L220.593 646.494L225.748 530.313L242.503 467.045L261.836 547.567L274.725 651.096L309.525 647.645L297.925 522.26C297.925 522.26 308.236 409.529 288.903 392.275Z" fill="#2F2E41"/>
<path d="M301.792 641.893L313.391 645.344C313.391 645.344 337.88 639.592 331.436 654.547C324.991 669.501 306.947 667.2 306.947 667.2C306.947 667.2 285.036 682.154 276.014 670.651L281.17 646.494L301.792 641.893Z" fill="#2F2E41"/>
<path d="M207.704 641.893L219.304 645.344C219.304 645.344 243.792 639.592 237.348 654.547C230.903 669.501 212.859 667.2 212.859 667.2C212.859 667.2 190.948 682.154 181.926 670.651L187.082 646.494L207.704 641.893Z" fill="#2F2E41"/>
<path d="M231.548 241.009C231.548 241.009 204.482 223.754 218.659 203.048C228.495 188.684 248.876 189.821 260.437 191.865C263.551 192.378 266.48 193.559 268.969 195.307C271.458 197.055 273.434 199.317 274.725 201.898C276.658 205.924 276.658 209.95 268.925 209.95C253.459 209.95 261.192 220.303 261.192 220.303C261.192 220.303 250.881 222.604 253.459 230.656C256.037 238.708 231.548 241.009 231.548 241.009Z" fill="#2F2E41"/>
<g style="mix-blend-mode:screen" clip-path="url(#clip1)">
<path d="M523.94 352.844C523.012 361.186 519.524 368.826 515.801 376.186C515.678 376.437 515.551 376.684 515.421 376.934L476.466 377.037C475.677 376.811 474.899 376.563 474.124 376.296C469.719 374.815 465.557 372.55 461.801 369.587C447.432 358.121 441.845 336.398 444.272 316.913C445.78 304.808 450.507 292.44 459.768 285.898C464.658 282.438 470.95 281.3 476.596 282.567C476.744 282.596 476.892 282.633 477.042 282.666C481.901 283.871 486.235 286.885 488.712 291.753C493.166 300.5 490.567 311.357 488.424 321.111C486.287 330.865 485.149 342.536 491.468 349.709C489.367 342.899 491.392 334.762 496.342 330.14C500.082 326.653 505.3 325.336 510.068 326.402C510.524 326.51 510.974 326.632 511.417 326.78C512.487 327.126 513.52 327.604 514.496 328.206C521.936 332.807 524.979 343.44 523.94 352.844Z" fill="#F2F2F2"/>
<path d="M500.919 376.226C502 376.503 503.083 376.747 504.174 376.964L498.284 376.98C497.512 376.75 496.743 376.506 495.981 376.239C494.306 375.66 492.657 374.996 491.033 374.246C484.519 371.223 478.514 366.675 473.961 360.613C471.735 357.677 469.914 354.387 468.558 350.853C467.088 346.858 466.148 342.647 465.768 338.352C464.917 329.539 465.726 320.48 467.263 311.818C468.848 302.84 471.428 294.118 474.941 285.85C475.363 284.86 475.801 283.875 476.252 282.896C476.283 282.816 476.33 282.744 476.39 282.687C476.449 282.63 476.52 282.589 476.596 282.567C476.751 282.533 476.911 282.569 477.042 282.666C477.2 282.766 477.317 282.93 477.369 283.123C477.422 283.316 477.405 283.524 477.324 283.704C473.7 291.645 470.96 300.051 469.167 308.735C467.411 317.207 466.428 326.069 466.802 334.775C467.157 342.909 469.092 350.904 473.441 357.545C477.414 363.607 482.887 368.381 488.936 371.626C492.764 373.653 496.784 375.196 500.919 376.226Z" fill="white"/>
<path d="M513.849 376.939L512.112 376.943C511.917 376.697 511.728 376.447 511.543 376.198C507.57 370.854 504.869 364.481 503.691 357.67C502.259 349.17 503.322 340.386 506.722 332.619C507.671 330.441 508.791 328.361 510.068 326.403C510.524 326.51 510.974 326.632 511.417 326.78C508.057 331.773 505.805 337.581 504.845 343.732C503.989 349.495 504.3 355.4 505.753 361.016C507.207 366.632 509.767 371.817 513.246 376.193C513.441 376.443 513.643 376.693 513.849 376.939Z" fill="white"/>
<path d="M670.264 370.175C670.524 372.375 671.458 374.387 672.453 376.324C672.486 376.39 672.52 376.455 672.555 376.521L682.836 376.494C683.044 376.433 683.249 376.367 683.453 376.295C684.613 375.898 685.707 375.294 686.693 374.507C690.465 371.461 691.902 365.72 691.227 360.582C690.808 357.389 689.539 354.131 687.084 352.418C685.75 351.518 684.162 351.213 682.637 351.562C682.598 351.57 682.559 351.58 682.519 351.589C681.884 351.727 681.283 352.014 680.755 352.43C680.227 352.846 679.784 353.382 679.455 354.003C678.295 356.318 679 359.179 679.582 361.751C680.163 364.322 680.484 367.401 678.829 369.303C679.07 368.508 679.116 367.657 678.964 366.835C678.811 366.014 678.466 365.252 677.962 364.628C677.458 364.004 676.814 363.541 676.096 363.286C675.379 363.031 674.614 362.994 673.879 363.177C673.759 363.206 673.641 363.239 673.524 363.279C673.242 363.372 672.97 363.499 672.714 363.659C670.758 364.884 669.974 367.694 670.264 370.175Z" fill="#F2F2F2"/>
<path d="M676.381 376.314C676.096 376.388 675.811 376.454 675.523 376.513L677.078 376.509C677.281 376.447 677.483 376.382 677.684 376.31C678.125 376.155 678.559 375.978 678.986 375.777C680.719 374.988 682.257 373.746 683.468 372.156C684.051 371.378 684.525 370.507 684.877 369.572C685.258 368.516 685.499 367.403 685.592 366.269C685.76 363.925 685.612 361.565 685.151 359.269C684.717 356.902 684.021 354.603 683.079 352.426C682.966 352.165 682.849 351.906 682.728 351.648C682.72 351.627 682.707 351.608 682.691 351.593C682.675 351.578 682.657 351.568 682.637 351.562C682.596 351.553 682.553 351.563 682.519 351.589C682.478 351.615 682.447 351.659 682.434 351.71C682.42 351.761 682.425 351.816 682.446 351.863C683.417 353.954 684.154 356.168 684.643 358.458C685.146 360.703 685.371 363.014 685.312 365.327C685.284 367.477 684.689 369.57 683.6 371.345C682.541 372.944 681.145 374.227 679.535 375.083C678.529 375.623 677.47 376.036 676.381 376.314Z" fill="white"/>
<path d="M672.97 376.52L673.428 376.519C673.479 376.453 673.529 376.387 673.577 376.321C674.616 374.905 675.318 373.22 675.617 371.421C675.98 369.175 675.684 366.858 674.773 364.813C674.519 364.24 674.22 363.692 673.879 363.177C673.759 363.206 673.641 363.239 673.524 363.279C674.42 364.592 675.024 366.122 675.288 367.744C675.524 369.263 675.452 370.822 675.079 372.306C674.705 373.79 674.038 375.162 673.127 376.322C673.076 376.388 673.024 376.455 672.97 376.52Z" fill="white"/>
<path d="M577.43 319.879L545.253 319.964L544.876 308.942C544.86 308.465 544.936 307.989 545.101 307.547C545.266 307.106 545.514 306.71 545.829 306.386C546.145 306.062 546.519 305.819 546.928 305.672C547.336 305.525 547.768 305.478 548.194 305.535L566.927 308.04L566.929 308.04C569.705 308.041 572.369 309.268 574.337 311.452C576.306 313.636 577.418 316.599 577.43 319.692L577.43 319.879Z" fill="#6C63FF"/>
<path d="M562.96 280.819L540.518 280.878C540.219 280.879 539.924 280.945 539.649 281.073C539.373 281.201 539.124 281.388 538.913 281.624C538.703 281.86 538.537 282.139 538.423 282.447C538.31 282.754 538.253 283.084 538.254 283.416L538.336 308.419C538.337 308.752 538.397 309.081 538.512 309.388C538.628 309.695 538.796 309.973 539.008 310.208C539.22 310.442 539.471 310.628 539.747 310.755C540.023 310.881 540.319 310.946 540.617 310.945L563.059 310.886C563.358 310.885 563.653 310.819 563.928 310.691C564.204 310.563 564.453 310.376 564.664 310.14C564.874 309.905 565.04 309.625 565.154 309.318C565.267 309.01 565.324 308.681 565.323 308.348L565.241 283.345C565.24 283.013 565.18 282.684 565.065 282.377C564.949 282.07 564.781 281.791 564.569 281.556C564.357 281.322 564.106 281.136 563.83 281.009C563.554 280.883 563.258 280.818 562.96 280.819Z" fill="#CCCCCC"/>
<path d="M557.967 299.529L547.379 301.855C546.751 301.993 546.1 301.847 545.567 301.449C545.035 301.052 544.666 300.436 544.541 299.736L543.711 295.079C543.587 294.379 543.717 293.653 544.073 293.061C544.429 292.468 544.981 292.058 545.609 291.919L556.197 289.592C556.825 289.455 557.477 289.601 558.009 289.998C558.541 290.396 558.91 291.012 559.036 291.711L559.865 296.369C559.989 297.069 559.859 297.795 559.503 298.387C559.147 298.979 558.595 299.39 557.967 299.529Z" fill="#3F3D56"/>
<path d="M555.829 294.029L547.749 295.805C547.601 295.837 547.448 295.803 547.322 295.709C547.197 295.616 547.11 295.471 547.081 295.306C547.052 295.142 547.082 294.971 547.166 294.831C547.25 294.692 547.38 294.595 547.527 294.563L555.608 292.787C555.756 292.755 555.909 292.789 556.034 292.882C556.16 292.976 556.246 293.121 556.276 293.286C556.305 293.45 556.275 293.621 556.191 293.761C556.107 293.9 555.977 293.997 555.829 294.029Z" fill="white"/>
<path d="M554.266 296.631L550.087 297.55C549.939 297.582 549.785 297.548 549.66 297.455C549.535 297.361 549.448 297.216 549.419 297.051C549.389 296.887 549.42 296.716 549.504 296.576C549.587 296.437 549.717 296.34 549.865 296.308L554.045 295.389C554.118 295.373 554.193 295.373 554.266 295.39C554.34 295.406 554.409 295.438 554.471 295.485C554.533 295.531 554.586 295.59 554.628 295.66C554.669 295.729 554.698 295.806 554.713 295.888C554.727 295.969 554.727 296.053 554.713 296.135C554.698 296.216 554.669 296.294 554.628 296.363C554.586 296.432 554.533 296.491 554.471 296.537C554.409 296.583 554.339 296.615 554.266 296.631Z" fill="white"/>
<path d="M565.241 283.345L565.252 286.668L538.265 286.739L538.254 283.416C538.253 283.084 538.31 282.754 538.423 282.447C538.537 282.139 538.703 281.86 538.913 281.624C539.124 281.388 539.373 281.201 539.649 281.073C539.924 280.945 540.219 280.879 540.518 280.878L562.96 280.819C563.258 280.818 563.554 280.883 563.83 281.009C564.106 281.136 564.357 281.322 564.569 281.556C564.781 281.791 564.949 282.07 565.065 282.377C565.18 282.684 565.24 283.013 565.241 283.345Z" fill="#B3B3B3"/>
<path d="M619.145 287.567C618.988 287.007 618.722 286.493 618.366 286.059C618.011 285.626 617.575 285.285 617.088 285.059C616.602 284.834 616.077 284.73 615.551 284.755C615.025 284.78 614.511 284.933 614.044 285.203L583.129 272.943L581.797 281.54L612.605 290.888C613.066 291.732 613.788 292.359 614.636 292.65C615.483 292.941 616.397 292.876 617.203 292.466C618.009 292.057 618.652 291.332 619.01 290.429C619.368 289.526 619.416 288.508 619.145 287.567Z" fill="#FFB8B8"/>
<path opacity="0.2" d="M619.145 287.567C618.988 287.007 618.722 286.493 618.366 286.059C618.011 285.626 617.575 285.285 617.088 285.059C616.602 284.834 616.077 284.73 615.551 284.755C615.025 284.78 614.511 284.933 614.044 285.203L583.129 272.943L581.797 281.54L612.605 290.888C613.066 291.732 613.788 292.359 614.636 292.65C615.483 292.941 616.397 292.876 617.203 292.466C618.009 292.057 618.652 291.332 619.01 290.429C619.368 289.526 619.416 288.508 619.145 287.567Z" fill="black"/>
<path d="M588.614 274.495L585.727 282.988C585.644 283.23 585.516 283.449 585.351 283.63C585.186 283.812 584.988 283.952 584.77 284.04C584.552 284.128 584.319 284.163 584.088 284.142C583.857 284.121 583.632 284.045 583.43 283.919L576.329 279.494C575.221 279.017 574.328 278.071 573.845 276.862C573.361 275.653 573.328 274.28 573.751 273.045C574.175 271.81 575.021 270.814 576.104 270.273C577.187 269.733 578.419 269.694 579.529 270.164L587.448 272.098C587.675 272.154 587.888 272.263 588.074 272.418C588.259 272.574 588.412 272.772 588.523 273C588.634 273.227 588.699 273.478 588.715 273.736C588.731 273.994 588.696 274.253 588.614 274.495Z" fill="#6C63FF"/>
<path d="M621.602 295.418L610.557 301.05L612.03 307.138C614.873 318.895 615.658 331.149 614.341 343.231L622.436 345.092L629.078 326.026L626.66 304.369L621.602 295.418Z" fill="#6C63FF"/>
<path d="M643.402 323.56C636.133 323.579 630.229 329.482 629.966 336.855L656.925 336.784C656.613 329.413 650.67 323.541 643.402 323.56Z" fill="#3F3D56"/>
<path d="M637.747 324.846C637.259 291.568 620.258 294.675 620.258 294.675C620.258 294.675 620.611 305.032 620.764 305.354C631.68 328.176 613.878 355.012 591.089 350.144C590.66 350.052 590.247 349.959 589.851 349.864C586.963 349.201 584.409 347.337 582.709 344.652C581.008 341.967 580.289 338.662 580.697 335.41C582.874 315.334 571.717 315.719 571.717 315.719L555.402 315.762L546.902 307.288C546.601 306.989 546.24 306.777 545.85 306.669C545.459 306.561 545.051 306.562 544.66 306.67C544.27 306.779 543.91 306.992 543.611 307.292C543.312 307.592 543.084 307.969 542.946 308.39L541.867 311.689C541.867 311.689 525.782 313.599 527.181 331.15L532.156 331.137C532.145 331.635 532.165 332.134 532.214 332.63L569.342 332.196C571.518 332.171 573.445 334.131 573.462 336.555C573.467 337.146 573.364 337.731 573.16 338.275C572.957 338.82 572.657 339.314 572.278 339.726C571.899 340.138 571.45 340.461 570.956 340.675C570.463 340.889 569.935 340.99 569.406 340.972L563.419 340.765C561.605 349.921 566.152 356.072 571.151 359.934C575.858 363.517 581.435 365.409 587.132 365.354L603.394 365.311C624.514 365.256 628.137 345.45 628.137 345.45C639.182 340.192 637.747 324.846 637.747 324.846Z" fill="#3F3D56"/>
<path d="M642.569 376.04C652.984 376.012 661.396 366.584 661.357 354.981C661.319 343.377 652.845 333.993 642.43 334.021C632.016 334.048 623.604 343.477 623.643 355.08C623.681 366.683 632.155 376.067 642.569 376.04Z" fill="#3F3D56"/>
<path d="M642.517 360.18C645.07 360.173 647.131 357.862 647.122 355.018C647.112 352.174 645.035 349.874 642.483 349.881C639.93 349.888 637.869 352.199 637.878 355.042C637.887 357.886 639.964 360.186 642.517 360.18Z" fill="white"/>
<path d="M547.361 376.29C559.349 376.259 569.032 365.406 568.988 352.049C568.944 338.693 559.189 327.891 547.201 327.922C535.213 327.954 525.53 338.807 525.574 352.163C525.618 365.52 535.373 376.322 547.361 376.29Z" fill="#3F3D56"/>
<path d="M547.301 358.034C550.239 358.026 552.612 355.366 552.601 352.092C552.59 348.818 550.2 346.171 547.261 346.179C544.323 346.186 541.95 348.846 541.961 352.12C541.971 355.394 544.362 358.041 547.301 358.034Z" fill="white"/>
<path d="M610.594 302.705L606.574 290.671C606.364 290.043 606.268 289.376 606.289 288.708C606.311 288.039 606.451 287.382 606.701 286.774C606.95 286.166 607.305 285.619 607.745 285.164C608.185 284.71 608.7 284.356 609.263 284.123L620.659 279.413C621.649 279.003 622.702 278.815 623.758 278.859C624.814 278.904 625.852 279.179 626.813 279.67C627.774 280.161 628.638 280.858 629.358 281.721C630.077 282.584 630.638 283.596 631.006 284.699C631.339 285.69 631.51 286.738 631.513 287.795C631.513 289.137 631.245 290.462 630.728 291.674C630.211 292.885 629.457 293.953 628.523 294.799C627.848 295.406 627.089 295.886 626.275 296.22L610.594 302.705Z" fill="#3F3D56"/>
<path d="M631.345 287.795C631.349 289.11 631.088 290.409 630.581 291.596C630.074 292.782 629.335 293.827 628.418 294.653C627.005 294.242 625.689 293.493 624.561 292.459C623.434 291.424 622.521 290.129 621.888 288.662C621.255 287.196 620.915 285.594 620.894 283.968C620.872 282.341 621.169 280.73 621.763 279.245C622.912 278.963 624.103 278.972 625.249 279.271C626.395 279.569 627.467 280.15 628.386 280.97C629.305 281.79 630.048 282.828 630.56 284.01C631.072 285.191 631.341 286.484 631.345 287.795Z" fill="#6C63FF"/>
<path d="M530.038 333.57C532.631 333.563 534.722 330.715 534.711 327.208C534.699 323.701 532.589 320.864 529.996 320.871C527.404 320.878 525.312 323.726 525.324 327.233C525.336 330.739 527.446 333.576 530.038 333.57Z" fill="#6C63FF"/>
<path d="M592.132 349.533L596.242 349.522L598.158 337.641L592.092 337.657L592.132 349.533Z" fill="#FFB8B8"/>
<path d="M591.078 348.04L599.172 348.019L599.173 348.019C599.85 348.017 600.521 348.164 601.148 348.451C601.775 348.738 602.345 349.16 602.826 349.692C603.307 350.225 603.689 350.857 603.95 351.554C604.212 352.25 604.348 352.997 604.35 353.752L604.351 353.939L591.098 353.974L591.078 348.04Z" fill="#2F2E41"/>
<path d="M596.886 344.646C596.838 344.646 596.79 344.644 596.742 344.639L591.053 344.192C590.823 344.169 590.6 344.087 590.403 343.953C590.205 343.819 590.038 343.637 589.914 343.419C589.79 343.202 589.712 342.956 589.687 342.7C589.662 342.444 589.69 342.185 589.768 341.944L597.317 322.87C597.371 322.7 597.393 322.519 597.381 322.339C597.369 322.159 597.324 321.984 597.248 321.824C597.173 321.663 597.067 321.521 596.939 321.408C596.811 321.295 596.663 321.214 596.505 321.169C592.922 320.136 583.729 317.385 575.768 314.158C572.357 312.775 570.206 310.77 569.372 308.198C568.274 304.807 569.872 301.707 569.941 301.577L569.994 301.475L577.478 302.213L585.59 302.96L603.397 313.531C604.89 314.425 606.026 315.911 606.579 317.694C607.133 319.477 607.064 321.427 606.386 323.154L598.26 343.646C598.142 343.943 597.95 344.195 597.706 344.373C597.462 344.55 597.178 344.645 596.886 344.646Z" fill="#2F2E41"/>
<path d="M578.654 264.513C583.201 264.501 586.874 260.384 586.857 255.317C586.841 250.251 583.141 246.154 578.593 246.166C574.046 246.178 570.373 250.294 570.39 255.361C570.406 260.427 574.106 264.525 578.654 264.513Z" fill="#FFB8B8"/>
<path d="M589.789 350.659L593.899 350.649L595.815 338.767L589.749 338.784L589.789 350.659Z" fill="#FFB8B8"/>
<path d="M588.736 349.167L596.829 349.145L596.83 349.145C597.507 349.144 598.178 349.291 598.805 349.578C599.432 349.865 600.002 350.287 600.483 350.819C600.964 351.351 601.346 351.984 601.607 352.68C601.869 353.377 602.005 354.124 602.007 354.879L602.008 355.065L588.755 355.101L588.736 349.167Z" fill="#2F2E41"/>
<path d="M594.543 345.772C594.495 345.772 594.447 345.77 594.399 345.765L588.71 345.319C588.48 345.295 588.257 345.214 588.06 345.08C587.862 344.946 587.695 344.763 587.571 344.546C587.447 344.329 587.369 344.083 587.344 343.827C587.319 343.571 587.347 343.312 587.425 343.07L594.974 323.996C595.028 323.826 595.05 323.645 595.038 323.466C595.026 323.286 594.981 323.11 594.905 322.951C594.83 322.789 594.724 322.648 594.596 322.535C594.468 322.422 594.32 322.34 594.162 322.296C590.579 321.263 581.386 318.511 573.425 315.284C570.014 313.902 567.863 311.897 567.029 309.324C565.931 305.933 567.529 302.834 567.598 302.704L567.651 302.602L575.135 303.34L583.247 304.087L601.054 314.658C602.547 315.551 603.683 317.037 604.236 318.821C604.79 320.604 604.721 322.553 604.043 324.28L595.917 344.773C595.799 345.069 595.607 345.322 595.363 345.499C595.119 345.677 594.835 345.771 594.543 345.772Z" fill="#2F2E41"/>
<path d="M581.21 269.708L572.483 266.369C572.483 266.369 567.027 271.067 569.694 282.679C571.086 288.672 570.707 295.002 568.613 300.73C568.361 301.439 568.07 302.129 567.742 302.798C567.742 302.798 577.507 315.845 586.527 306.11L582.945 287.258C582.945 287.258 588.435 274.731 581.21 269.708Z" fill="#6C63FF"/>
<path d="M579.677 264.822C578.499 262.871 577.565 260.163 578.849 258.301C580.117 256.462 582.629 256.726 584.577 255.908C587.29 254.77 588.854 251.21 588.352 248.027C587.85 244.843 585.547 242.209 582.81 241.136C580.073 240.063 576.992 240.423 574.319 241.674C571.029 243.214 568.212 246.183 567.039 249.938C565.866 253.694 566.515 258.197 568.983 261.075C571.63 264.16 575.77 264.973 579.597 264.913" fill="#2F2E41"/>
<path d="M571.963 248.172C570.491 249.515 568.236 248.926 566.647 247.755C565.058 246.584 563.766 244.913 562.048 243.996C559.019 242.38 555.367 243.469 552.43 245.277C549.493 247.084 546.893 249.577 543.789 250.998C540.685 252.418 536.719 252.498 534.356 249.838C533.783 251.709 533.743 253.732 534.24 255.632C534.737 257.531 535.748 259.214 537.135 260.451C538.522 261.688 540.217 262.419 541.989 262.544C543.761 262.669 545.523 262.181 547.036 261.148C550.434 258.828 552.299 253.977 556.115 252.691C558.227 251.979 560.498 252.542 562.637 253.152C564.775 253.762 567.005 254.422 569.16 253.892C571.314 253.362 573.323 251.198 573.041 248.759L571.963 248.172Z" fill="#2F2E41"/>
<path d="M618.734 287.194C618.516 286.66 618.195 286.186 617.795 285.805C617.394 285.424 616.923 285.145 616.416 284.988C615.908 284.831 615.376 284.8 614.857 284.897C614.338 284.994 613.844 285.217 613.411 285.55L581.379 277.631L581.01 286.346L612.613 291.39C613.163 292.164 613.95 292.687 614.823 292.859C615.696 293.032 616.595 292.841 617.35 292.324C618.104 291.807 618.662 290.999 618.917 290.054C619.172 289.108 619.107 288.091 618.734 287.194Z" fill="#FFB8B8"/>
<path d="M586.994 278.417L585.069 287.244C585.014 287.495 584.912 287.73 584.768 287.933C584.624 288.135 584.443 288.301 584.237 288.419C584.03 288.537 583.803 288.603 583.571 288.614C583.34 288.625 583.108 288.581 582.893 288.483L575.358 285.068C574.205 284.747 573.213 283.931 572.599 282.797C571.985 281.663 571.8 280.305 572.083 279.02C572.367 277.736 573.097 276.63 574.112 275.945C575.128 275.26 576.346 275.052 577.5 275.367L585.571 276.198C585.802 276.222 586.026 276.301 586.228 276.43C586.429 276.559 586.603 276.735 586.738 276.945C586.873 277.156 586.966 277.396 587.01 277.65C587.054 277.904 587.048 278.165 586.994 278.417L586.994 278.417Z" fill="#6C63FF"/>
<path d="M615.06 294.128C616.356 294.125 617.403 292.951 617.398 291.507C617.393 290.063 616.339 288.896 615.043 288.899C613.747 288.903 612.7 290.076 612.705 291.52C612.709 292.964 613.764 294.132 615.06 294.128Z" fill="#6C63FF"/>
<path d="M719.253 376.024C719.253 376.123 719.218 376.218 719.155 376.288C719.093 376.358 719.008 376.398 718.919 376.398L441.675 377.128C441.586 377.129 441.5 377.09 441.437 377.02C441.374 376.95 441.339 376.855 441.338 376.756C441.338 376.657 441.373 376.562 441.436 376.491C441.498 376.421 441.583 376.382 441.672 376.381L718.917 375.651C719.005 375.652 719.091 375.691 719.154 375.761C719.217 375.83 719.252 375.925 719.253 376.024Z" fill="#3F3D56"/>
</g>
</g>
<defs>
<linearGradient id="paint0_linear" x1="603.656" y1="280.567" x2="692.079" y2="280.567" gradientUnits="userSpaceOnUse">
<stop stop-color="white"/>
<stop offset="1" stop-color="white" stop-opacity="0.3"/>
</linearGradient>
<linearGradient id="paint1_linear" x1="64774.8" y1="20165.5" x2="72450.8" y2="20165.5" gradientUnits="userSpaceOnUse">
<stop stop-color="white"/>
<stop offset="1" stop-color="white" stop-opacity="0.3"/>
</linearGradient>
<clipPath id="clip0">
<rect width="945" height="675" fill="white"/>
</clipPath>
<clipPath id="clip1">
<rect width="277.916" height="136.264" fill="white" transform="matrix(0.999996 -0.00263296 0.00330546 0.999995 440.889 240.866)"/>
</clipPath>
</defs>
</svg>
